<svg width="22" height="22" viewBox="0 0 22 22" fill="none" xmlns="http://www.w3.org/2000/svg">
<path d="M1.03107 8.58264H20.9689V7.09182H1.03107V8.58264ZM20.5333 8.13987V8.79434H22V8.13987H20.5333ZM18.1661 20.5092H3.83387V22H18.1661V20.5092ZM1.46667 8.79434V8.13987H0V8.79434H1.46667ZM4.24747 20.7686C2.41868 17.0507 1.46662 12.951 1.46667 8.79434H0C0 13.1833 1.00467 17.5111 2.93627 21.4365L4.24747 20.7686ZM3.83387 20.5092C4.00987 20.5092 4.16973 20.6106 4.24747 20.7686L2.93627 21.4365C3.01977 21.6058 3.14793 21.7481 3.30644 21.8476C3.46495 21.9471 3.64756 21.9999 3.83387 22V20.5092ZM17.7525 20.7686C17.791 20.6906 17.85 20.625 17.9231 20.5791C17.9961 20.5333 18.0803 20.5091 18.1661 20.5092V22C18.5475 22 18.8936 21.7823 19.0637 21.4365L17.7525 20.7686ZM20.5333 8.79434C20.5333 12.9507 19.58 17.0505 17.7525 20.7686L19.0637 21.4365C20.9947 17.5113 22 13.1829 22 8.79434H20.5333ZM20.9689 8.58264C20.8534 8.58264 20.7426 8.53599 20.6609 8.45295C20.5792 8.36992 20.5333 8.2573 20.5333 8.13987H22C22 7.86191 21.8914 7.59533 21.698 7.39879C21.5046 7.20224 21.2424 7.09182 20.9689 7.09182V8.58264ZM1.03107 7.09182C0.757611 7.09182 0.495355 7.20224 0.301992 7.39879C0.10863 7.59533 0 7.86191 0 8.13987H1.46667C1.46667 8.2573 1.42077 8.36992 1.33908 8.45295C1.25739 8.53599 1.1466 8.58264 1.03107 8.58264V7.09182ZM5.76253 8.22037L10.1625 0.76628L8.90267 0L4.50267 7.45409L5.76107 8.22037H5.76253ZM11.8375 0.76628L16.2375 8.22037L17.4959 7.45409L13.0959 0L11.8375 0.76628Z" fill="white"/>
</svg>
