<svg width="22" height="22" viewBox="0 0 22 22" fill="none" xmlns="http://www.w3.org/2000/svg">
<path d="M6.469 0C2.918 0 0 2.914 0 6.469V15.531C0 19.082 2.914 22 6.469 22H15.531C19.082 22 22 19.086 22 15.531V6.47C22 2.918 19.086 0 15.531 0H6.469ZM6.469 2H15.531C16.1181 1.99921 16.6996 2.11427 17.2421 2.33857C17.7847 2.56288 18.2777 2.89204 18.6928 3.30718C19.108 3.72232 19.4371 4.21529 19.6614 4.75785C19.8857 5.30041 20.0008 5.8819 20 6.469V15.531C20.0008 16.1181 19.8857 16.6996 19.6614 17.2421C19.4371 17.7847 19.108 18.2777 18.6928 18.6928C18.2777 19.108 17.7847 19.4371 17.2421 19.6614C16.6996 19.8857 16.1181 20.0008 15.531 20H6.47C5.88282 20.0009 5.30122 19.886 4.75855 19.6617C4.21587 19.4375 3.72278 19.1083 3.30753 18.6932C2.89228 18.278 2.56304 17.785 2.33867 17.2424C2.1143 16.6998 1.99921 16.1182 2 15.531V6.47C1.99908 5.88282 2.11404 5.30122 2.33829 4.75855C2.56254 4.21587 2.89167 3.72278 3.30682 3.30753C3.72198 2.89228 4.215 2.56304 4.75762 2.33867C5.30025 2.1143 5.88182 1.99921 6.469 2ZM16.906 4.188C16.7869 4.18747 16.6688 4.21054 16.5587 4.25589C16.4485 4.30123 16.3484 4.36795 16.2642 4.45218C16.1799 4.53642 16.1132 4.6365 16.0679 4.74666C16.0225 4.85682 15.9995 4.97487 16 5.094C16 5.598 16.402 6 16.906 6C17.0252 6.00066 17.1434 5.97769 17.2536 5.9324C17.3639 5.88712 17.4641 5.82042 17.5485 5.73618C17.6328 5.65193 17.6996 5.5518 17.745 5.44157C17.7904 5.33134 17.8135 5.21321 17.813 5.094C17.8135 4.97479 17.7904 4.85666 17.745 4.74643C17.6996 4.6362 17.6328 4.53607 17.5485 4.45182C17.4641 4.36758 17.3639 4.30088 17.2536 4.2556C17.1434 4.21031 17.0252 4.18734 16.906 4.188ZM11 5C7.7 5 5 7.7 5 11C5 14.3 7.7 17 11 17C14.3 17 17 14.3 17 11C17 7.7 14.3 5 11 5ZM11 7C13.223 7 15 8.777 15 11C15 13.223 13.223 15 11 15C8.777 15 7 13.223 7 11C7 8.777 8.777 7 11 7Z" fill="#1E9DC6"/>
</svg>
