<svg width="55" height="16" viewBox="0 0 55 16" fill="none" xmlns="http://www.w3.org/2000/svg">
<path opacity="0.5" d="M10.752 0.78125V3.07617H3.68164V0.78125H10.752ZM12.8418 0.78125V15H9.91211V0.78125H12.8418ZM3.31055 0.78125H6.23047L5.86914 7.91992C5.81706 8.98763 5.71615 9.91536 5.56641 10.7031C5.42318 11.4909 5.22786 12.1615 4.98047 12.7148C4.73307 13.2617 4.42708 13.7044 4.0625 14.043C3.70443 14.375 3.28125 14.6191 2.79297 14.7754C2.30469 14.9251 1.74805 15 1.12305 15H0.400391V12.7148L0.771484 12.6855C1.09049 12.653 1.37044 12.5684 1.61133 12.4316C1.85221 12.2949 2.05729 12.0898 2.22656 11.8164C2.40234 11.543 2.54557 11.1947 2.65625 10.7715C2.77344 10.3418 2.86458 9.81771 2.92969 9.19922C3.0013 8.58073 3.05013 7.85807 3.07617 7.03125L3.31055 0.78125ZM28.0703 7.55859V8.23242C28.0703 9.31315 27.9238 10.2832 27.6309 11.1426C27.3379 12.002 26.9245 12.7344 26.3906 13.3398C25.8568 13.9388 25.2188 14.3978 24.4766 14.7168C23.7409 15.0358 22.9238 15.1953 22.0254 15.1953C21.1335 15.1953 20.3164 15.0358 19.5742 14.7168C18.8385 14.3978 18.2005 13.9388 17.6602 13.3398C17.1198 12.7344 16.6999 12.002 16.4004 11.1426C16.1074 10.2832 15.9609 9.31315 15.9609 8.23242V7.55859C15.9609 6.47135 16.1074 5.5013 16.4004 4.64844C16.6934 3.78906 17.1068 3.05664 17.6406 2.45117C18.181 1.8457 18.819 1.38346 19.5547 1.06445C20.2969 0.745443 21.1139 0.585938 22.0059 0.585938C22.9043 0.585938 23.7214 0.745443 24.457 1.06445C25.1992 1.38346 25.8372 1.8457 26.3711 2.45117C26.9115 3.05664 27.3281 3.78906 27.6211 4.64844C27.9206 5.5013 28.0703 6.47135 28.0703 7.55859ZM25.1113 8.23242V7.53906C25.1113 6.78385 25.043 6.11979 24.9062 5.54688C24.7695 4.97396 24.5677 4.49219 24.3008 4.10156C24.0339 3.71094 23.7083 3.41797 23.3242 3.22266C22.9401 3.02083 22.5007 2.91992 22.0059 2.91992C21.5111 2.91992 21.0716 3.02083 20.6875 3.22266C20.3099 3.41797 19.9876 3.71094 19.7207 4.10156C19.4603 4.49219 19.2617 4.97396 19.125 5.54688C18.9883 6.11979 18.9199 6.78385 18.9199 7.53906V8.23242C18.9199 8.98112 18.9883 9.64518 19.125 10.2246C19.2617 10.7975 19.4635 11.2826 19.7305 11.6797C19.9974 12.0703 20.3229 12.3665 20.707 12.5684C21.0911 12.7702 21.5306 12.8711 22.0254 12.8711C22.5202 12.8711 22.9596 12.7702 23.3438 12.5684C23.7279 12.3665 24.0501 12.0703 24.3105 11.6797C24.571 11.2826 24.7695 10.7975 24.9062 10.2246C25.043 9.64518 25.1113 8.98112 25.1113 8.23242ZM40.5156 0.78125V3.07617H34.1094V15H31.1895V0.78125H40.5156ZM54.3477 7.55859V8.23242C54.3477 9.31315 54.2012 10.2832 53.9082 11.1426C53.6152 12.002 53.2018 12.7344 52.668 13.3398C52.1341 13.9388 51.4961 14.3978 50.7539 14.7168C50.0182 15.0358 49.2012 15.1953 48.3027 15.1953C47.4108 15.1953 46.5938 15.0358 45.8516 14.7168C45.1159 14.3978 44.4779 13.9388 43.9375 13.3398C43.3971 12.7344 42.9772 12.002 42.6777 11.1426C42.3848 10.2832 42.2383 9.31315 42.2383 8.23242V7.55859C42.2383 6.47135 42.3848 5.5013 42.6777 4.64844C42.9707 3.78906 43.3841 3.05664 43.918 2.45117C44.4583 1.8457 45.0964 1.38346 45.832 1.06445C46.5742 0.745443 47.3913 0.585938 48.2832 0.585938C49.1816 0.585938 49.9987 0.745443 50.7344 1.06445C51.4766 1.38346 52.1146 1.8457 52.6484 2.45117C53.1888 3.05664 53.6055 3.78906 53.8984 4.64844C54.1979 5.5013 54.3477 6.47135 54.3477 7.55859ZM51.3887 8.23242V7.53906C51.3887 6.78385 51.3203 6.11979 51.1836 5.54688C51.0469 4.97396 50.8451 4.49219 50.5781 4.10156C50.3112 3.71094 49.9857 3.41797 49.6016 3.22266C49.2174 3.02083 48.778 2.91992 48.2832 2.91992C47.7884 2.91992 47.349 3.02083 46.9648 3.22266C46.5872 3.41797 46.265 3.71094 45.998 4.10156C45.7376 4.49219 45.5391 4.97396 45.4023 5.54688C45.2656 6.11979 45.1973 6.78385 45.1973 7.53906V8.23242C45.1973 8.98112 45.2656 9.64518 45.4023 10.2246C45.5391 10.7975 45.7409 11.2826 46.0078 11.6797C46.2747 12.0703 46.6003 12.3665 46.9844 12.5684C47.3685 12.7702 47.8079 12.8711 48.3027 12.8711C48.7975 12.8711 49.237 12.7702 49.6211 12.5684C50.0052 12.3665 50.3275 12.0703 50.5879 11.6797C50.8483 11.2826 51.0469 10.7975 51.1836 10.2246C51.3203 9.64518 51.3887 8.98112 51.3887 8.23242Z" fill="white"/>
</svg>
