<svg width="42" height="35" viewBox="0 0 42 35" fill="none" xmlns="http://www.w3.org/2000/svg">
<g clip-path="url(#clip0_1_173)">
<path d="M40.555 13.2629C40.1669 13.1574 39.7347 13.1076 38.8244 12.9982C35.0566 12.8478 25.7452 12.4955 21.0002 12.4955C16.2555 12.4955 6.94386 12.8476 3.17646 12.9982C2.26569 13.1076 1.83309 13.1574 1.44522 13.2629C0.26061 13.5346 0 13.9484 0 14.774V20.4321C0 21.2578 0.90909 21.8142 1.53573 21.9264C2.16279 22.0394 2.55948 22.0846 3.21909 22.1457C6.58896 22.3488 14.4073 22.7722 21 22.7789C27.5929 22.7728 35.4108 22.349 38.7809 22.1457C39.4403 22.0846 39.8372 22.0392 40.4645 21.9264C41.0909 21.814 42 21.2578 42 20.4321V14.774C42 13.9484 41.7396 13.5346 40.555 13.2629Z" fill="url(#paint0_linear_1_173)"/>
<path d="M5.89049 13.4854C7.74437 7.20997 13.8358 2.6055 21.0668 2.6055C28.2769 2.6055 34.356 7.18464 36.2279 13.4349C36.2338 13.457 36.2378 13.4684 36.2443 13.4897C37.3191 13.3722 38.2819 13.1907 38.9623 13.0139C38.9499 12.9737 38.9468 12.9655 38.9361 12.9259C36.8086 5.48061 29.6144 0.00195312 21.0668 0.00195312C12.4904 0.00195312 5.27729 5.51617 3.17603 12.9982C4.12124 13.2502 4.81361 13.3558 5.89049 13.4854Z" fill="url(#paint1_radial_1_173)"/>
<path d="M36.1837 21.7102C36.165 21.766 36.1442 21.8275 36.1345 21.8579C34.1632 27.958 28.1635 32.3947 21.067 32.3947C13.9144 32.3947 7.87692 27.8896 5.95353 21.7161C4.77795 21.9186 4.38084 21.9957 3.21912 22.1461C5.37162 29.555 12.5461 34.9983 21.067 34.9983C29.5915 34.9983 36.7685 29.5492 38.917 22.1342C37.8935 22.0112 37.2906 21.9182 36.1837 21.7102Z" fill="url(#paint2_radial_1_173)"/>
<path d="M6.26897 13.4718C6.71522 13.2924 7.14698 13.0063 7.82003 12.8222C9.82658 7.7494 14.9997 4.13701 21.0666 4.13701C27.1146 4.13701 32.275 7.72713 34.2941 12.7754C34.3012 12.7926 34.3086 12.8134 34.3143 12.8263C34.6616 12.9434 35.6849 13.3472 36.0033 13.4823C36.0484 13.4833 36.1448 13.4866 36.2444 13.4892C36.2385 13.4711 36.2331 13.4528 36.228 13.4345C34.3552 7.18623 28.2763 2.60852 21.0666 2.60852C13.8376 2.60852 7.74611 7.21095 5.8916 13.4851C5.9987 13.4853 6.20261 13.4763 6.26897 13.4718Z" fill="url(#paint3_radial_1_173)"/>
<path d="M20.9514 3.03296C27.7162 3.03296 33.7127 6.958 35.9841 13.4277L36.0026 13.4827C36.0378 13.4827 36.1666 13.4872 36.2436 13.4896C36.2375 13.4661 36.2312 13.4525 36.2273 13.4349C34.3545 7.18666 28.2756 2.60895 21.0659 2.60895C13.8369 2.60895 7.74538 7.21138 5.89087 13.4856C6.03535 13.4833 6.10486 13.4833 6.26866 13.4721C8.29936 7.3299 14.2365 3.03296 20.9514 3.03296Z" fill="white"/>
<path d="M35.8001 21.728C35.3142 21.9922 34.7092 22.2464 34.2255 22.3949C34.219 22.4101 34.1915 22.4771 34.1856 22.4928C32.0936 27.4016 27.008 30.8666 21.0667 30.8666C15.088 30.8666 9.97641 27.3595 7.90875 22.4021C7.35246 22.2519 6.52086 21.8829 6.20607 21.7288C6.08826 21.7233 6.02484 21.72 5.95239 21.7163C7.87578 27.8889 13.9143 32.3949 21.0669 32.3949C28.1872 32.3949 34.2024 27.9302 36.154 21.8011C36.1582 21.7893 36.1798 21.7218 36.1844 21.7104C36.0716 21.7147 35.8992 21.728 35.8001 21.728Z" fill="url(#paint4_radial_1_173)"/>
<path d="M40.2184 13.6725C39.2204 13.5544 38.54 13.5671 36.1091 13.4855C35.9986 13.4817 35.8863 13.4784 35.7722 13.4745C31.3643 13.3274 24.743 13.1308 21 13.1308C17.2572 13.1308 10.6361 13.3274 6.22755 13.4745C6.11373 13.4784 6.0018 13.4817 5.89155 13.4855C3.46017 13.5671 2.77998 13.5544 1.78185 13.6725C0.78393 13.7916 0 14.2169 0 14.9401V20.187C0 20.9106 0.94437 21.4964 1.78164 21.4964C1.78164 21.4964 12.4383 22.1366 21 22.1442C29.5619 22.1366 40.2184 21.4964 40.2184 21.4964C41.0556 21.4964 42 20.9106 42 20.187V14.9401C42 14.2169 41.2163 13.7916 40.2184 13.6725Z" fill="url(#paint5_radial_1_173)"/>
<path d="M35.8002 21.728C33.7088 27.7649 27.8271 31.9703 21.1834 31.9703C14.472 31.9703 8.51678 28.107 6.20552 21.728C6.12068 21.7237 6.03669 21.7204 5.95374 21.7157C7.87671 27.8885 13.9163 32.3945 21.0691 32.3945C28.2242 32.3945 34.2645 27.8857 36.1858 21.7096C36.0593 21.7153 35.931 21.7221 35.8002 21.728Z" fill="white"/>
<path d="M35.8124 21.7275L35.7996 21.7279C35.3136 21.9922 34.7091 22.2464 34.225 22.3949C34.2185 22.41 34.191 22.4771 34.1853 22.4928C33.5234 24.0462 32.5616 25.455 31.3667 26.6555C33.237 25.325 34.7624 23.6441 35.8124 21.7275Z" fill="#8C8C8C"/>
<path d="M11.1699 27.046C9.76333 25.7423 8.64361 24.1642 7.90861 22.4017C7.35232 22.2513 6.52093 21.882 6.20593 21.728C6.54254 22.407 6.93941 23.0561 7.39201 23.668C8.3179 24.8413 9.44014 25.8872 10.7176 26.7722C10.8663 26.867 11.017 26.9581 11.1699 27.046Z" fill="#4D4D4D"/>
<path d="M5.95307 21.7165V21.7161L5.94824 21.7169C4.77644 21.919 4.37891 21.9965 3.21887 22.1461C3.31232 22.4689 3.41585 22.7871 3.52862 23.102L5.95307 21.7165Z" fill="#252525"/>
<path d="M29.5338 15.9963C29.1835 15.2345 29.3079 15.3144 28.5453 15.2948C28.4834 15.2744 28.3181 15.2744 28.0917 15.2744C27.8658 15.2744 27.8242 15.2744 27.6386 15.2948C26.9178 15.2948 27.0413 15.2547 26.7944 15.7558C26.7944 15.7558 25.5573 18.4617 25.0222 19.5842L25.0016 19.6242C24.8987 19.8243 24.9606 19.8243 25.1251 19.8243H26.2379C26.3206 19.8243 26.3613 19.785 26.3819 19.7442C26.3819 19.7442 26.5468 19.4033 26.7528 18.9225H29.4721C29.6783 19.3837 29.8224 19.7242 29.8224 19.7442C29.8429 19.8045 29.9049 19.8243 29.9664 19.8243H31.1202C31.285 19.8243 31.3264 19.8453 31.2646 19.7041C31.0582 19.2233 29.7192 16.4166 29.5338 15.9963ZM27.1644 17.9605C27.5147 17.1588 27.8654 16.3772 27.8654 16.357C27.8862 16.3167 27.9273 16.2967 27.9888 16.2967C28.0096 16.2763 28.0718 16.2763 28.1333 16.2763C28.1747 16.2763 28.236 16.2763 28.2568 16.2967C28.2978 16.2967 28.3398 16.3167 28.3595 16.377C28.4427 16.5971 28.7509 17.279 29.0393 17.9605H27.1644ZM12.3317 15.2343C12.4346 15.2343 12.4554 15.2742 12.4554 15.3545V19.6447C12.4554 19.7444 12.4346 19.7853 12.3113 19.7853H11.2399C11.1166 19.7853 11.096 19.7648 11.096 19.6447V15.3545C11.096 15.2742 11.1166 15.2343 11.1987 15.2343H12.3317ZM10.045 15.2742C10.1682 15.2742 10.1895 15.314 10.1895 15.4147V19.6847C10.1895 19.8053 10.1682 19.8253 10.045 19.8253H8.78812C8.04682 19.8253 7.98487 19.8253 7.73791 19.4248C7.22278 18.6432 5.67739 16.3378 5.67739 16.3378V19.6851C5.67739 19.8059 5.65681 19.8255 5.53354 19.8255H4.60618C4.4827 19.8255 4.46191 19.8059 4.46191 19.6851V15.4147C4.46191 15.3144 4.4827 15.2742 4.60618 15.2742H5.67739C6.48085 15.2742 6.58375 15.2543 6.87271 15.6553C7.09909 16.0163 8.97376 18.8226 8.97376 18.8226V15.4147C8.97376 15.3144 8.99434 15.2742 9.11824 15.2742H10.045ZM37.5474 15.2742C37.6717 15.2742 37.6919 15.314 37.6919 15.4147V19.6847C37.6919 19.8053 37.6713 19.8253 37.5474 19.8253H36.2918C35.5495 19.8253 35.4875 19.8253 35.2406 19.4248C34.725 18.6426 33.18 16.3374 33.18 16.3374V19.6849C33.18 19.8055 33.1595 19.8251 33.0356 19.8251H32.109C31.9856 19.8251 31.9644 19.8055 31.9644 19.6849V15.4147C31.9644 15.3144 31.9858 15.2742 32.109 15.2742H33.18C33.9835 15.2742 34.0868 15.2543 34.3747 15.6553C34.6221 16.0163 36.4764 18.8226 36.4764 18.8226V15.4147C36.4764 15.3144 36.4972 15.2742 36.6209 15.2742H37.5474ZM17.0495 17.0188C17.8738 17.0987 18.4714 17.2389 18.6361 18.0009C18.6361 18.0606 18.6569 18.2613 18.6569 18.4819C18.6569 18.6225 18.6569 18.8024 18.6155 18.963C18.4716 19.6845 17.9149 19.8247 17.0502 19.8247H13.5885C13.4648 19.8247 13.444 19.8051 13.444 19.6845V18.963C13.444 18.8424 13.4648 18.8224 13.5885 18.8224H17.0903C17.2347 18.8224 17.2759 18.7825 17.2963 18.6818V18.5014V18.3812C17.2755 18.3007 17.2551 18.1805 17.0699 18.1609C16.6782 18.1409 15.5249 18.0404 14.7416 17.9605C13.7322 17.8601 13.4852 17.4396 13.4438 17.0785C13.4232 16.958 13.4232 16.7977 13.4232 16.6574C13.4232 16.537 13.4232 16.3568 13.4438 16.2162C13.5883 15.5743 14.0829 15.2742 14.9476 15.2742H18.3055C18.4296 15.2742 18.471 15.2946 18.471 15.3945V16.1365C18.471 16.236 18.4296 16.2765 18.3055 16.2564H15.0096C14.8653 16.2564 14.8038 16.3165 14.7828 16.4567V16.6371C14.7828 16.7375 14.8447 16.8178 14.9888 16.8372C15.3811 16.8781 16.5961 16.9782 17.0495 17.0188ZM23.0028 17.0188C23.8277 17.0987 24.4247 17.2389 24.5898 18.0009C24.5898 18.0606 24.6104 18.2613 24.6104 18.4819C24.6104 18.6225 24.6104 18.8024 24.5692 18.963C24.4254 19.6845 23.8693 19.8247 23.0037 19.8247H19.5422C19.4185 19.8247 19.3977 19.8051 19.3977 19.6845V18.963C19.3977 18.8424 19.4185 18.8224 19.5422 18.8224H23.0446C23.1887 18.8224 23.2292 18.7825 23.2504 18.6818V18.5014V18.3812C23.229 18.3007 23.1882 18.1805 23.0236 18.1609C22.6324 18.1409 21.4786 18.0404 20.696 17.9605C19.6861 17.8601 19.4599 17.4396 19.3977 17.0785C19.3772 16.958 19.3772 16.7977 19.3772 16.6574C19.3772 16.537 19.3772 16.3568 19.3977 16.2162C19.5422 15.5743 20.0366 15.2742 20.9016 15.2742H24.2601C24.3831 15.2742 24.4249 15.2946 24.4249 15.3945V16.1365C24.4249 16.236 24.3831 16.2765 24.2601 16.2564H20.9635C20.8194 16.2564 20.7579 16.3165 20.7369 16.4567V16.6371C20.7369 16.7375 20.7783 16.8178 20.9433 16.8372C21.3348 16.8781 22.5498 16.9782 23.0028 17.0188Z" fill="url(#paint6_radial_1_173)"/>
</g>
<defs>
<linearGradient id="paint0_linear_1_173" x1="21" y1="0.518549" x2="21" y2="29.0043" gradientUnits="userSpaceOnUse">
<stop offset="0.194" stop-color="white"/>
<stop offset="0.208" stop-color="#F8F8F8"/>
<stop offset="0.366" stop-color="#AEAEAE"/>
<stop offset="0.513" stop-color="#707070"/>
<stop offset="0.647" stop-color="#404040"/>
<stop offset="0.764" stop-color="#1D1D1D"/>
<stop offset="0.86" stop-color="#080808"/>
<stop offset="0.922"/>
</linearGradient>
<radialGradient id="paint1_radial_1_173" cx="0" cy="0" r="1" gradientUnits="userSpaceOnUse" gradientTransform="translate(9.20996 -7.0334) scale(29.2872 28.4984)">
<stop offset="0.202" stop-color="white"/>
<stop offset="0.382" stop-color="#FDFDFD"/>
<stop offset="0.487" stop-color="#F4F4F4"/>
<stop offset="0.573" stop-color="#E6E6E6"/>
<stop offset="0.648" stop-color="#D2D2D2"/>
<stop offset="0.689" stop-color="#C4C4C4"/>
<stop offset="1" stop-color="#333333"/>
</radialGradient>
<radialGradient id="paint2_radial_1_173" cx="0" cy="0" r="1" gradientUnits="userSpaceOnUse" gradientTransform="translate(80.0869 38.6137) scale(60.9945 59.3517)">
<stop offset="0.202" stop-color="white"/>
<stop offset="0.368" stop-color="#E4E4E4"/>
<stop offset="0.594" stop-color="#C4C4C4"/>
<stop offset="1" stop-color="#333333"/>
</radialGradient>
<radialGradient id="paint3_radial_1_173" cx="0" cy="0" r="1" gradientUnits="userSpaceOnUse" gradientTransform="translate(16.2446 25.5163) scale(18.7255 18.2211)">
<stop offset="0.202" stop-color="white"/>
<stop offset="0.368" stop-color="#E4E4E4"/>
<stop offset="0.594" stop-color="#C4C4C4"/>
<stop offset="1" stop-color="#333333"/>
</radialGradient>
<radialGradient id="paint4_radial_1_173" cx="0" cy="0" r="1" gradientUnits="userSpaceOnUse" gradientTransform="translate(31.3555 44.1479) scale(35.5307 34.5737)">
<stop offset="0.202" stop-color="white"/>
<stop offset="0.368" stop-color="#E4E4E4"/>
<stop offset="0.594" stop-color="#C4C4C4"/>
<stop offset="1" stop-color="#333333"/>
</radialGradient>
<radialGradient id="paint5_radial_1_173" cx="0" cy="0" r="1" gradientUnits="userSpaceOnUse" gradientTransform="translate(20.7186 3.60715) scale(28.2349 27.4744)">
<stop offset="0.202" stop-color="white"/>
<stop offset="0.397" stop-color="#FDFDFD"/>
<stop offset="0.51" stop-color="#F4F4F4"/>
<stop offset="0.603" stop-color="#E6E6E6"/>
<stop offset="0.684" stop-color="#D2D2D2"/>
<stop offset="0.728" stop-color="#C4C4C4"/>
<stop offset="1" stop-color="#4D4D4D"/>
</radialGradient>
<radialGradient id="paint6_radial_1_173" cx="0" cy="0" r="1" gradientUnits="userSpaceOnUse" gradientTransform="translate(21.3726 6.35844) scale(19.0178 18.5056)">
<stop offset="0.111" stop-color="#4D4D4D"/>
<stop offset="0.248" stop-color="#494949"/>
<stop offset="0.355" stop-color="#404040"/>
<stop offset="0.451" stop-color="#2F2F2F"/>
<stop offset="0.541" stop-color="#181818"/>
<stop offset="0.611"/>
</radialGradient>
<clipPath id="clip0_1_173">
<rect width="42" height="35" fill="white"/>
</clipPath>
</defs>
</svg>
